<svg width="25" height="24" viewBox="0 0 25 24" fill="none" xmlns="http://www.w3.org/2000/svg">
<path d="M5.24983 11C5.24983 6.58172 8.83125 3 13.2492 3C17.6671 3 21.2485 6.58172 21.2485 11C21.2485 12.15 21.0058 13.2434 20.569 14.2316L21.25 18.9992L17.1646 17.9778C16.0072 18.6287 14.6715 19 13.2492 19M3.25095 16C3.25095 16.7188 3.40258 17.4021 3.6756 18.0198L3.25 20.9995L5.80315 20.3611C6.52643 20.768 7.36115 21 8.25005 21C11.011 21 13.2492 18.7614 13.2492 16C13.2492 13.2386 11.011 11 8.25005 11C5.48912 11 3.25095 13.2386 3.25095 16Z" stroke="white" stroke-width="2" stroke-linecap="round" stroke-linejoin="round"/>
</svg>
