<svg width="794" height="794" viewBox="0 0 794 794" fill="none" xmlns="http://www.w3.org/2000/svg">
<rect width="794" height="794" fill="white"/>
<path d="M506.118 287H599.647V318.429H506.118V287Z" fill="#5C9002"/>
<path d="M474.941 349.857H506.118V318.429H474.941V349.857Z" fill="#5C9002"/>
<path d="M225.529 412.714H194.353V444.143H225.529V412.714Z" fill="#5C9002"/>
<path d="M256.706 381.286V349.857H287.882V381.286H256.706Z" fill="#5C9002"/>
<path d="M256.706 381.286H225.529V412.714H256.706V381.286Z" fill="#5C9002"/>
<path fill-rule="evenodd" clip-rule="evenodd" d="M474.941 444.143V349.857H443.765V381.286H412.588V349.857H381.412V381.286H350.235V349.857H319.059V318.429H287.882V287H194.353V318.429H163.176V349.857H132V444.143H163.176V475.571H194.353V507H287.882V475.571H319.059V444.143H350.235V412.714H381.412V381.286H412.588V412.714H443.765V444.143H474.941ZM287.882 475.571V444.143H319.059V349.857H287.882V318.429H194.353V349.857H163.176V444.143H194.353V475.571H287.882Z" fill="#5C9002"/>
<path fill-rule="evenodd" clip-rule="evenodd" d="M506.118 444.143H474.941V475.571H506.118V507H599.647V475.571H630.823V444.143H662V349.857H630.823V318.429H599.647V349.857H568.471V381.286H537.294V412.714H506.118V444.143ZM506.118 444.143H537.294V412.714H568.471V381.286H599.647V349.857H630.823V444.143H599.647V475.571H506.118V444.143Z" fill="#5C9002"/>
</svg>
