<svg width="209" height="116" viewBox="0 0 209 116" fill="none" xmlns="http://www.w3.org/2000/svg">
<path d="M133.071 0H157.56V8.12164H133.071V0Z" fill="#B0FF28"/>
<path d="M124.908 16.2433H133.071V8.12164H124.908V16.2433Z" fill="#B0FF28"/>
<path d="M59.6033 32.4866H51.4403V40.6082H59.6033V32.4866Z" fill="#B0FF28"/>
<path d="M67.7664 24.3649V16.2433H75.9294V24.3649H67.7664Z" fill="#B0FF28"/>
<path d="M67.7664 24.3649H59.6033V32.4866H67.7664V24.3649Z" fill="#B0FF28"/>
<path fill-rule="evenodd" clip-rule="evenodd" d="M124.908 40.6082V16.2433H116.745V24.3649H108.582V16.2433H100.418V24.3649H92.2555V16.2433H84.0924V8.12164H75.9294V0H51.4403V8.12164H43.2773V16.2433H35.1142V40.6082H43.2773V48.7298H51.4403V56.8515H75.9294V48.7298H84.0924V40.6082H92.2555V32.4866H100.418V24.3649H108.582V32.4866H116.745V40.6082H124.908ZM75.9294 48.7298V40.6082H84.0924V16.2433H75.9294V8.12164H51.4403V16.2433H43.2773V40.6082H51.4403V48.7298H75.9294Z" fill="#B0FF28"/>
<path fill-rule="evenodd" clip-rule="evenodd" d="M133.071 40.6082H124.908V48.7298H133.071V56.8515H157.56V48.7298H165.723V40.6082H173.886V16.2433H165.723V8.12164H157.56V16.2433H149.397V24.3649H141.234V32.4866H133.071V40.6082ZM133.071 40.6082H141.234V32.4866H149.397V24.3649H157.56V16.2433H165.723V40.6082H157.56V48.7298H133.071V40.6082Z" fill="#B0FF28"/>
<path d="M7.15263 116V108.941H0V87.3875H7.15263V80.3285H36.1446V87.764H7.53411V108.565H28.6105V101.882H21.4579V94.4465H36.1446V108.941H28.992V116H7.15263Z" fill="#B0FF28"/>
<path d="M43.8658 116V80.3285H80.0104V87.764H51.3999V94.4465H72.8578V101.882H51.3999V108.565H80.0104V116H43.8658Z" fill="#B0FF28"/>
<path d="M86.4742 116V80.3285H122.619V87.764H94.0083V94.4465H115.466V101.882H94.0083V108.565H122.619V116H86.4742Z" fill="#B0FF28"/>
<path d="M129.083 116V80.3285H136.617V94.4465H150.541V87.3875H157.693V80.3285H165.227V87.764H158.075V94.823H150.922V101.505H158.075V108.565H165.227V116H157.693V108.941H150.541V101.882H136.617V116H129.083Z" fill="#B0FF28"/>
<path d="M172.855 116V108.565H201.466V101.882H180.008V94.823H172.855V87.3875H180.008V80.3285H209V87.764H180.389V94.4465H201.847V101.505H209V108.941H201.847V116H172.855Z" fill="#B0FF28"/>
</svg>
